HIERARCHY
ROOT Hips
{
  OFFSET 263.056 91.6644 -274.608
  CHANNELS 6 Xposition Yposition Zposition Zrotation Xrotation Yrotation
  JOINT LeftUpLeg
  {
    OFFSET 8.64259 1.95398 -2.38835
    CHANNELS 3 Zrotation Xrotation Yrotation
    JOINT LeftLeg
    {
      OFFSET 43.7702 0 0
      CHANNELS 3 Zrotation Xrotation Yrotation
      JOINT LeftFoot
      {
        OFFSET 40.6238 0 0
        CHANNELS 3 Zrotation Xrotation Yrotation
        JOINT LeftToeBase
        {
          OFFSET 12.7242 0 0
          CHANNELS 3 Zrotation Xrotation Yrotation
          End Site
          {
            OFFSET 0 0 0
          }
        }
      }
    }
  }
  JOINT RightUpLeg
  {
    OFFSET -8.2249 1.95398 -2.59336
    CHANNELS 3 Zrotation Xrotation Yrotation
    JOINT RightLeg
    {
      OFFSET 43.5653 0 0
      CHANNELS 3 Zrotation Xrotation Yrotation
      JOINT RightFoot
      {
        OFFSET 40.6238 0 0
        CHANNELS 3 Zrotation Xrotation Yrotation
        JOINT RightToeBase
        {
          OFFSET 12.7242 0 0
          CHANNELS 3 Zrotation Xrotation Yrotation
          End Site
          {
            OFFSET 0 0 0
          }
        }
      }
    }
  }
  JOINT Spine
  {
    OFFSET 0.165834 0.87714 6.61349
    CHANNELS 3 Zrotation Xrotation Yrotation
    JOINT Spine1
    {
      OFFSET 7.38963 1.71661e-005 0
      CHANNELS 3 Zrotation Xrotation Yrotation
      JOINT Spine2
      {
        OFFSET 11.9445 1.14441e-005 0
        CHANNELS 3 Zrotation Xrotation Yrotation
        JOINT Spine3
        {
          OFFSET 14.7254 4.19617e-005 0
          CHANNELS 3 Zrotation Xrotation Yrotation
          JOINT Spine4
          {
            OFFSET 10.9679 0 0
            CHANNELS 3 Zrotation Xrotation Yrotation
            JOINT RightShoulder
            {
              OFFSET 2.46616 -1.6653 3.69651
              CHANNELS 3 Zrotation Xrotation Yrotation
              JOINT RightArm
              {
                OFFSET 13.0012 0 0
                CHANNELS 3 Zrotation Xrotation Yrotation
                JOINT RightForeArm
                {
                  OFFSET 28.7848 1.52588e-005 0
                  CHANNELS 3 Zrotation Xrotation Yrotation
                  JOINT RightHand
                  {
                    OFFSET 26.5688 1.52588e-005 0
                    CHANNELS 3 Zrotation Xrotation Yrotation
                    End Site
                    {
                      OFFSET 0 0 0
                    }
                  }
                }
              }
            }
            JOINT LeftShoulder
            {
              OFFSET 2.38034 -1.29275 -3.7523
              CHANNELS 3 Zrotation Xrotation Yrotation
              JOINT LeftArm
              {
                OFFSET 16.3182 6.10352e-005 0
                CHANNELS 3 Zrotation Xrotation Yrotation
                JOINT LeftForeArm
                {
                  OFFSET 27.0901 0 0
                  CHANNELS 3 Zrotation Xrotation Yrotation
                  JOINT LeftHand
                  {
                    OFFSET 24.5451 1.52588e-005 0
                    CHANNELS 3 Zrotation Xrotation Yrotation
                    End Site
                    {
                      OFFSET 0 0 0
                    }
                  }
                }
              }
            }
            JOINT Neck
            {
              OFFSET 5.0226 -0.0266342 0
              CHANNELS 3 Zrotation Xrotation Yrotation
              JOINT Head
              {
                OFFSET 6.69364 2.86102e-005 0
                CHANNELS 3 Zrotation Xrotation Yrotation
                End Site
                {
                  OFFSET 0 0 0
                }
              }
            }
          }
        }
      }
    }
  }
}
MOTION
Frames:	6
Frame Time:	0.0416667
11.2065 97.747 -102.35 -94.9022 -84.7651 -97.4148 -173.665 2.30045 88.5527 -7.54027 2.26979 0.754447 62.2536 7.05557 9.65121 21.1117 -7.15791 -6.09046 174.624 6.33744 83.7157 -14.138 -9.26693 -1.12842 64.9874 -1.50832 -0.803194 32.3395 -0.0822583 9.51486 0.101897 7.13991 -89.8148 12.5935 0.290767 0.336031 0.922581 0.305276 0.322892 -21.6124 0.176331 0.407876 -1.5997 0.176338 0.407879 80.2583 -51.51 -114.923 25.9634 -12.4708 4.17456 -8.30795 -19.381 -37.5463 -5.23947 -0.505951 3.04479 -101.963 -44.674 58.9646 -29.327 10.7065 2.48489 5.86747 12.9774 -33.7754 6.30301 0.752152 6.7051 3.54211 2.04393 4.55038 3.98786 1.15986 -1.16512 
11.193 97.7383 -102.29 -94.0343 -84.6185 -96.4887 -173.17 2.59276 88.9032 -8.05172 3.37866 0.185293 62.74 7.60398 10.2785 19.4861 -9.06314 -5.20377 174.643 5.83688 83.7467 -13.1264 -8.48442 -1.17681 65.1274 -1.61117 -0.866275 31.7551 -0.211781 10.7198 0.163244 7.15999 -89.8445 12.5534 0.398469 0.264417 0.882488 0.409722 0.246611 -21.6528 0.300574 0.371944 -1.64012 0.300578 0.371939 80.8432 -51.1171 -114.217 26.4385 -12.5718 4.15499 -7.5416 -17.3514 -37.6943 -5.91935 -0.485707 1.8844 -102.492 -44.7902 58.2208 -29.0189 10.4347 2.26782 5.44733 12.173 -33.145 6.5445 0.618851 4.71545 4.15385 1.9821 4.35641 3.88532 1.15131 -0.489613 
11.3095 97.669 -102.312 -94.2164 -84.791 -96.7013 -172.793 2.78869 89.0358 -8.37268 4.95641 -0.430873 62.3877 8.42781 11.6134 23.2489 -6.03174 -1.01495 174.81 5.55772 83.7373 -12.8503 -7.75073 -1.44489 65.3718 -1.62785 -0.860949 32.1609 -0.157829 11.0133 0.183437 7.19244 -89.8567 12.4885 0.432718 0.236397 0.817637 0.4427 0.217112 -21.7177 0.341667 0.355523 -1.70509 0.34166 0.35551 81.1866 -50.9071 -113.792 26.8418 -12.6054 4.65284 -8.50746 -16.605 -40.329 -6.0539 -0.511328 2.54695 -103.045 -44.9077 57.4433 -28.8177 9.69706 2.75711 4.78175 10.1659 -32.8446 6.5586 0.49096 3.05102 4.88761 1.78925 3.49727 3.57354 1.1636 0.722955 
11.6157 97.6583 -102.473 -97.1426 -85.226 -99.8347 -172.539 3.8904 88.9866 -10.9788 4.94389 -0.798129 61.2961 6.17571 9.54713 35.6904 7.74363 2.06948 175.181 5.11034 83.6457 -12.3836 -6.86736 -2.12425 64.9954 -1.51945 -0.799764 33.3815 0.028045 11.3231 0.180256 7.24049 -89.8845 12.3925 0.413059 0.183364 0.721622 0.420723 0.164998 -21.8138 0.338855 0.299033 -1.80116 0.338848 0.299019 81.5866 -50.1806 -113.472 27.417 -13.3003 5.63284 -9.3384 -15.6834 -44.112 -6.14565 -0.597547 4.59078 -104.226 -45.1131 55.779 -28.7148 8.56954 3.97522 3.14487 6.1056 -32.0143 6.15164 0.343517 1.41716 5.1835 1.35791 3.00356 3.6006 0.850936 1.21275 
11.9828 97.45 -102.855 -104.808 -85.0127 -108.315 -172.08 3.57703 88.4788 -11.9006 4.93337 -1.60126 61.6727 8.6176 12.2609 38.3221 10.8016 2.31291 175.344 5.71095 82.8668 -14.3763 -6.93889 -2.87548 65.783 -1.65437 -0.864188 35.1024 0.306478 11.2711 0.129098 7.37849 -89.8327 12.1164 0.335795 0.296773 0.445475 0.348521 0.28171 -22.0896 0.231071 0.383976 -2.07696 0.231072 0.383975 81.867 -49.5037 -113.306 27.2802 -16.4728 5.516 -11.2293 -15.7966 -47.8471 -9.70667 -0.877868 5.07974 -104.714 -45.164 55.0799 -28.8471 8.04554 5.16625 -0.836983 -2.06834 -29.6767 7.96998 0.212442 -1.02313 5.32451 1.06434 1.37324 4.40306 0.977936 2.80654 
12.5939 97.2892 -103.309 -105.556 -84.6513 -109.025 -171.798 5.09796 88.5294 -15.7817 3.27776 -1.54835 63.4842 10.0241 11.816 38.4791 10.9958 2.48704 175.653 6.44868 82.6665 -15.3746 -7.0984 -3.3155 64.9877 -1.39377 -0.724026 43.6594 1.3949 7.51402 0.0506131 7.50479 -89.8765 11.8642 0.158819 0.229399 0.193222 0.168767 0.222176 -22.3418 0.0825335 0.266522 -2.32916 0.0825332 0.266517 82.9686 -48.5634 -111.99 25.9243 -22.4849 3.67273 -12.9665 -15.9311 -53.3754 -13.6092 -1.19555 5.45017 -105.421 -44.8439 53.882 -29.2053 5.93596 6.84269 -2.47519 -8.19011 -27.2304 8.10934 0.0747881 -2.54291 5.62541 0.795339 -1.26013 5.49453 1.4128 5.14365 
